<svg version="1.1" width="600" height="600" xmlns="http://www.w3.org/2000/svg" viewBox="-2100 -2100 4200 4200">
<g transform="scale(1, -1)">
<rect x="-2100" y="-2100" width="4200" height="4200" fill="#ffffff"/>
<rect x="-1800" y="-1800" width="3600" height="3600" fill="none" stroke="#333333" stroke-width="3"/>
<image href="V5RC-PushBack-H2H-TopDownHighlighted-TileColor66_71@0.1+2000px.png" x="-1850" y="-1850" width="3700" height="3700" opacity="0.25"/>
<line x1="-1800" y1="-1200" x2="1800" y2="-1200" stroke="#444444" stroke-width="3"/>
<line x1="-1800" y1="-600" x2="1800" y2="-600" stroke="#444444" stroke-width="3"/>
<line x1="-1800" y1="0" x2="1800" y2="0" stroke="#444444" stroke-width="3"/>
<line x1="-1800" y1="600" x2="1800" y2="600" stroke="#444444" stroke-width="3"/>
<line x1="-1800" y1="1200" x2="1800" y2="1200" stroke="#444444" stroke-width="3"/>
<line x1="-1200" y1="-1800" x2="-1200" y2="1800" stroke="#444444" stroke-width="3"/>
<line x1="-600" y1="-1800" x2="-600" y2="1800" stroke="#444444" stroke-width="3"/>
<line x1="0" y1="-1800" x2="0" y2="1800" stroke="#444444" stroke-width="3"/>
<line x1="600" y1="-1800" x2="600" y2="1800" stroke="#444444" stroke-width="3"/>
<line x1="1200" y1="-1800" x2="1200" y2="1800" stroke="#444444" stroke-width="3"/>
<g transform="translate(1500 1200)  rotate(-56)">
<rect x="-195" y="-190" width="120" height="410" fill="none" stroke="#7777cc" stroke-width="25"/>
<rect x="75" y="-190" width="120" height="410" fill="none" stroke="#7777cc" stroke-width="25"/>
<line x1="-75" y1="0" x2="75" y2="0" stroke="#7777cc" stroke-width="25"/>
<line x1="0" y1="-410" x2="0" y2="410" stroke="#5555ff" stroke-width="25"/>
<polyline points="-60,306 0,410 60,306" fill="none" stroke="#0000ff" stroke-width="25"/>
<polyline points="-60,-514 0,-410 60,-514" fill="none" stroke="#0000ff" stroke-width="25"/>
</g>
<g transform="translate(1500 1200)  rotate(-56)">
<rect x="-195" y="-190" width="120" height="410" fill="none" stroke="#7777cc" stroke-width="25"/>
<rect x="75" y="-190" width="120" height="410" fill="none" stroke="#7777cc" stroke-width="25"/>
<line x1="-75" y1="0" x2="75" y2="0" stroke="#7777cc" stroke-width="25"/>
<line x1="0" y1="-410" x2="0" y2="410" stroke="#5555ff" stroke-width="25"/>
<polyline points="-60,306 0,410 60,306" fill="none" stroke="#0000ff" stroke-width="25"/>
<polyline points="-60,-514 0,-410 60,-514" fill="none" stroke="#0000ff" stroke-width="25"/>
</g>
<path d="M 1500,1200 l -77 133 a 89 89 0 1 0 154 0 z m -19 177 a 19 19 0 0 0 38 0 a 19 19 0 0 0 -38 0 z" fill="none" stroke="#7777cc" stroke-width="3" fill-rule="evenodd"/>
<line x1="1462" y1="1200" x2="1537" y2="1200" stroke="#ff0000" stroke-width="25" stroke-dasharray="25,25">
<animateTransform attributeName="transform" type="rotate" to="360 1500 1200" dur="2000ms" repeatCount="indefinite" from="0 1500 1200"/>
</line>
</g>
</svg>
